<?xml version="1.0" encoding="UTF-8"?>
<svg id="Calque_2" data-name="Calque 2" xmlns="http://www.w3.org/2000/svg" viewBox="0 0 324.5 31.98">
  <defs>
    <style>
      .cls-1 {
        fill: #23f596;
        stroke-width: 0px;
      }
    </style>
  </defs>
  <g id="Calque_1-2" data-name="Calque 1">
    <g>
      <g>
        <path class="cls-1" d="M27.83,6.39H7.56v6.65h19.31c3.03,0,5.07.52,6.14,1.55,1.06,1.04,1.6,2.96,1.6,5.77v4.25c0,2.81-.53,4.74-1.6,5.77-1.06,1.04-3.11,1.55-6.14,1.55H7.73c-3.03,0-5.07-.52-6.14-1.55-1.06-1.04-1.6-2.96-1.6-5.77v-.85l6.36-1.32v3.66h21.88v-7.06H8.94c-3.01,0-5.04-.52-6.09-1.55-1.05-1.04-1.58-2.96-1.58-5.77v-3.43c0-2.81.53-4.74,1.58-5.77,1.05-1.04,3.09-1.55,6.09-1.55h17.58c2.91,0,4.92.5,6.02,1.49,1.1,1-4.7,3.93-4.7,3.93Z"/>
        <path class="cls-1" d="M40.15,31.94V11.64h4.92v20.3h-4.92Z"/>
        <path class="cls-1" d="M49.32,31.94V11.64h13.66c3.92,0,6.93.87,9.04,2.61s3.15,4.23,3.15,7.46c0,3.41-1.11,5.96-3.34,7.66s-5.59,2.55-10.09,2.55h-12.42ZM54.32,28.14h6.38c3.48,0,5.92-.51,7.31-1.52s2.09-2.73,2.09-5.13c0-2.09-.58-3.65-1.73-4.68s-2.93-1.54-5.32-1.54h-8.72v12.87Z"/>
        <path class="cls-1" d="M77.83,31.94V11.64h3.4l17.23,13.48v-13.48h4.48v20.3h-3.42l-17.18-13.69v13.69h-4.5Z"/>
        <path class="cls-1" d="M107.2,31.94V11.64h21.77v3.59h-16.78v4.43h9.77v3.49h-9.77v4.99h17.04v3.8h-22.03Z"/>
        <path class="cls-1" d="M139.24,31.94v-9.12l-11.09-11.18h6.68l7.24,7.57,7.34-7.57h5.81l-11.04,11.09v9.21h-4.95Z"/>
        <path class="cls-1" d="M186.82,6.51v25.43h-7.21V6.51h-14.21V.97h35.68v5.54h-14.27Z"/>
        <path class="cls-1" d="M200.03,16.42c0-1.84.36-3.1,1.08-3.77s2.12-1.01,4.2-1.01h15.7c2.09,0,3.5.34,4.21,1.01s1.07,1.93,1.07,3.77v10.71c0,1.86-.36,3.12-1.09,3.8s-2.12,1.01-4.18,1.01h-15.7c-2.08,0-3.48-.34-4.2-1.01s-1.08-1.94-1.08-3.8v-10.71ZM204.97,28.05h16.36v-12.68h-16.36v12.68Z"/>
        <path class="cls-1" d="M230.03,31.94V11.64h18.28c1.67,0,2.88.31,3.63.93s1.12,1.62,1.12,3.01v4.78c0,1.38-.38,2.37-1.12,2.98s-1.96.91-3.63.91h-2.79l9.66,7.69h-7.1l-8.51-7.69h-4.66v7.69h-4.88ZM246.2,15.13h-11.3v5.62h11.3c.86,0,1.45-.12,1.77-.38s.48-.67.48-1.27v-2.34c0-.59-.16-1.02-.48-1.27s-.91-.38-1.77-.38Z"/>
        <path class="cls-1" d="M274.21,15.37h-13.34v12.68h13.34v-4.31l4.99,1.01v2.39c0,1.84-.37,3.11-1.1,3.79s-2.14,1.02-4.22,1.02h-12.68c-2.05,0-3.44-.34-4.17-1.01s-1.1-1.94-1.1-3.8v-10.71c0-1.84.36-3.1,1.09-3.77s2.12-1.01,4.18-1.01h12.68c2.09,0,3.5.34,4.23,1.01s1.09,1.93,1.09,3.77v1.97l-4.99.73v-3.75Z"/>
        <path class="cls-1" d="M282.54,31.94V11.64h4.99v8.2l11.84-8.2h7.17l-14.04,9.4,15.61,10.9h-7.83l-12.75-9.16v9.16h-4.99Z"/>
      </g>
      <line class="cls-1" x1="165.27" y1="31.98" x2="212.7" y2=".05"/>
      <path class="cls-1" d="M1.77,7h200.6l10.41-7H10.77C6.77,0,3.68,1.92,3.68,1.92l-1.37,1.26-.54,1.19v2.64Z"/>
      <polygon class="cls-1" points="211.77 7 314.09 7 324.5 0 222.49 0 211.77 7"/>
    </g>
  </g>
</svg>